<svg width="620" height="66" viewBox="0 0 620 66" fill="none" xmlns="http://www.w3.org/2000/svg">
<line x1="4.37114e-08" y1="0.5" x2="620" y2="0.500054" stroke="#555659" stroke-dasharray="2 2"/>
<path d="M282 53C282 59.6274 276.627 65 270 65M282 53C282 46.3726 276.627 41 270 41M282 53H258M270 65C263.373 65 258 59.6274 258 53M270 65C273.988 65 277.22 59.6274 277.22 53C277.22 46.3726 273.988 41 270 41M270 65C266.012 65 262.78 59.6274 262.78 53C262.78 46.3726 266.012 41 270 41M270 65C271.348 65 272.441 59.6274 272.441 53C272.441 46.3726 271.348 41 270 41M270 65C268.652 65 267.559 59.6274 267.559 53C267.559 46.3726 268.652 41 270 41M258 53C258 46.3726 263.373 41 270 41M261.051 45.0678H279M261 60.9322H279" stroke="#0F0E0E" stroke-width="1.5"/>
<path d="M318.136 51.5763C317.453 47.7619 314.178 44.8644 310.115 44.8644C305.558 44.8644 301.864 48.5068 301.864 53C301.864 57.4932 305.558 61.1356 310.115 61.1356C314.178 61.1356 317.453 58.2381 318.136 54.4237M322 53C322 59.6274 316.627 65 310 65C303.373 65 298 59.6274 298 53C298 46.3726 303.373 41 310 41C316.627 41 322 46.3726 322 53Z" stroke="#0F0E0E" stroke-width="1.5"/>
<path d="M362 53C362 59.6274 356.627 65 350 65C343.373 65 338 59.6274 338 53C338 46.3726 343.373 41 350 41C356.627 41 362 46.3726 362 53Z" stroke="#0F0E0E" stroke-width="1.5"/>
<path d="M354.068 53C354.068 55.2466 352.247 57.0678 350 57.0678C347.753 57.0678 345.932 55.2466 345.932 53C345.932 50.7534 347.753 48.9322 350 48.9322C352.247 48.9322 354.068 50.7534 354.068 53Z" stroke="#0F0E0E" stroke-width="1.5"/>
<path d="M358.136 53C358.136 57.4932 354.493 61.1356 350 61.1356C345.507 61.1356 341.864 57.4932 341.864 53C341.864 48.5068 345.507 44.8644 350 44.8644C354.493 44.8644 358.136 48.5068 358.136 53Z" stroke="#0F0E0E" stroke-width="1.5"/>
</svg>
